<svg xmlns:xlink="http://www.w3.org/1999/xlink" xmlns="http://www.w3.org/2000/svg" viewBox="0 0 403 129" preserveAspectRatio="xMidYMid meet" class="css-98pqax" id="bddehgee" width="403"  height="129" ><defs id="SvgjsDefs3266"></defs><g id="SvgjsG3267" featurekey="symbolContainer" transform="matrix(1,0,0,1,0,0)" fill="#f2eeeb">    <path xmlns="http://www.w3.org/2000/svg" fill-rule="nonzero" d="             M0,0             H133             V129             H0,0             z             M4,4             v121             h125             v-121             z     " fill="#f2eeeb"></path></g><g id="SvgjsG3268" featurekey="symbolFeature-0" transform="matrix(1.3988784382833686,0,0,1.3988784382833686,-2.9538220805755344,-5.473743387259823)" fill="#f2eeeb"><path xmlns="http://www.w3.org/2000/svg" d="M66.67,46.99c11.76,1.93,18.75-7.35,10.06-19.85c0,0,0,0,0,0c-3.22-4.36-8.01-7.9-13.13-9.73  c-5.65-2.02-11.05-1.68-14.46,0.89C39.43,25.62,50.89,44.4,66.67,46.99z M56.94,25.46c0.71-5.35,9.28-5.47,14.63,1.32  c0.07-0.01,0.14-0.02,0.2-0.02c-0.07,0.01-0.14,0.02-0.21,0.02c0.78,1.05,1.72,2.69,1.83,4.56c0.09,1.6-0.51,3.02-1.66,3.88  C66.72,39,56.08,31.98,56.94,25.46z" fill="#f2eeeb"></path><path xmlns="http://www.w3.org/2000/svg" d="M85.14,43.39c-0.43-2.19-0.55-2.55-1.44-5.39v0l-0.52-1.38c0.58,1.58,1.67,4.53,1.63,8.03C84.62,61.94,59.61,63,43.63,46.4  c-13.74-14.27-11.87-33.24,8.78-32.37l-1.88-0.1c-2.29-0.03-2.55,0-5.75,0.32c-2.86,0.45-3.35,0.59-6.55,1.53  c-1.05,0.37-2.43,0.93-3.46,1.35C23.45,22.33,22.4,36.8,32.39,50.07c15.89,21.11,49.21,27.06,53.1,4.25  c0.13-1.4,0.22-3.28,0.26-4.69C85.67,46.96,85.6,46.48,85.14,43.39z" fill="#f2eeeb"></path><path xmlns="http://www.w3.org/2000/svg" d="M80.2,69.23l-0.44,0.65C79.91,69.67,80.05,69.45,80.2,69.23z" fill="#f2eeeb"></path><path xmlns="http://www.w3.org/2000/svg" d="M66.24,77.31c-25.68,3.26-59.68-29.96-44.05-50.7l-1.6,2.02c-2.25,3.31-2.68,4.17-4.14,7.28c-0.53,1.37-1.16,3.23-1.6,4.63  C9.09,64.87,47.17,92.79,69.16,80.37c2.4-1.6,2.74-1.9,5.42-4.27c1.68-1.63,1.82-1.8,4.15-4.73l1.02-1.5  C76.06,75.05,70.41,76.78,66.24,77.31z" fill="#f2eeeb"></path><path xmlns="http://www.w3.org/2000/svg" d="M14.29,57.16c0.36,1.74,0.4,1.86,1.34,4.84c0.64,1.77,0.74,1.99,1.99,4.6c1.24,2.29,1.55,2.73,3.04,4.87  c0.86,1.16,0.93,1.24,2.67,3.21c0.89,0.96,0.93,0.99,2.79,2.68c0.94,0.81,0.94,0.81,2.95,2.28c1.02,0.71,1.02,0.71,3.16,1.96  c1.13,0.62,1.13,0.62,3.44,1.67c1.28,0.54,1.28,0.54,3.82,1.36c1.51,0.44,1.56,0.45,4.32,0.99c1.83,0.29,1.95,0.3,4.97,0.47  c1.37,0.04,3.21-0.09,4.58-0.18C36.57,86.97,18.31,73.54,14.29,57.16z" fill="#f2eeeb"></path></g><g id="SvgjsG3269" featurekey="nameFeature-0" transform="matrix(2.410335490336444,0,0,2.410335490336444,150.10760419268766,1.847276139944217)" fill="#f2eeeb"><path d="M20.08 20.44 l-5.96 0 l0 -1.16 c0 -0.88 -0.76 -1.64 -1.64 -1.64 l-3.64 0 c-0.92 0 -1.64 0.76 -1.64 1.64 l0 13.88 c0 0.88 0.72 1.64 1.64 1.64 l3.64 0 c0.88 0 1.64 -0.76 1.64 -1.64 l0 -3.96 l-3.48 0 l0 -5.96 l9.44 0 l0 9.92 c0 2.04 -0.8 3.92 -2.24 5.36 c-1.4 1.44 -3.32 2.24 -5.36 2.24 l-3.64 0 c-2.04 0 -3.96 -0.8 -5.4 -2.24 s-2.24 -3.32 -2.24 -5.36 l0 -13.88 c0 -4.16 3.48 -7.6 7.64 -7.6 l3.64 0 c4.16 0 7.6 3.48 7.6 7.6 l0 1.16 z M12.48 16.88 c1.28 -0.04 2.4 1.12 2.4 2.4 l0 0.4 l4.44 0 l0 -0.4 c0 -3.72 -3.12 -6.84 -6.84 -6.84 l-3.64 0 c-3.76 0 -6.84 3.12 -6.84 6.84 l0 13.88 c0 1.8 0.68 3.52 2 4.84 c1.28 1.28 3 2 4.84 2 l3.64 0 c1.8 0 3.56 -0.72 4.84 -2 c1.28 -1.32 2 -3.04 2 -4.84 l0 -9.16 l-7.92 0 l0 4.44 l3.48 0 l0 4.72 c0 1.32 -1.12 2.4 -2.4 2.4 l-3.64 0 c-1.28 0 -2.44 -1.08 -2.44 -2.4 l0 -13.88 c0 -1.32 1.16 -2.4 2.44 -2.4 l3.64 0 z M28.44 34.96 l12.8 0 l0 5.88 l-18.72 0 l0 -28.8 l5.92 0 l0 22.92 z M40.480000000000004 40.08 l0 -4.36 l-12.8 0 l0 -22.92 l-4.36 0 l0 27.28 l17.16 0 z M60.36 13.920000000000002 c1.44 1.44 2.24 3.32 2.24 5.36 l0 21.48 l-5.96 0 l0 -3.96 l-6.96 0 l0 3.96 l-5.96 0 l0 -21.48 c0 -2.04 0.8 -3.92 2.24 -5.36 s3.36 -2.24 5.4 -2.24 l3.64 0 c2 0 3.92 0.8 5.36 2.24 z M61.84 40 l0 -20.72 c0 -1.8 -0.72 -3.52 -2 -4.84 c-1.32 -1.28 -3.04 -2 -4.84 -2 l-3.64 0 c-1.84 0 -3.56 0.72 -4.84 2 c-1.32 1.32 -2.04 3.04 -2.04 4.84 l0 20.72 l4.44 0 l0 -3.96 l8.48 0 l0 3.96 l4.44 0 z M55 16.88 c0.64 0 1.24 0.24 1.68 0.72 c0.48 0.44 0.72 1.04 0.72 1.68 l0 12.32 l-8.48 0 l0 -12.32 c0 -0.64 0.28 -1.24 0.72 -1.68 c0.44 -0.48 1.08 -0.72 1.72 -0.72 l3.64 0 z M56.64 30.84 l0 -11.56 c0 -0.44 -0.2 -0.84 -0.48 -1.16 c-0.32 -0.32 -0.72 -0.48 -1.16 -0.48 l-3.64 0 c-0.44 0 -0.88 0.16 -1.16 0.48 c-0.32 0.32 -0.52 0.72 -0.52 1.16 l0 11.56 l6.96 0 z M83.76 21.08 l-5.92 0 l0 -1.48 c0 -0.44 -0.16 -0.84 -0.48 -1.16 c-0.28 -0.32 -0.72 -0.48 -1.16 -0.48 l-3.56 0 c-0.44 0 -0.88 0.16 -1.16 0.48 c-0.32 0.32 -0.48 0.72 -0.48 1.16 l0 2.24 c0 0.44 0.16 0.88 0.48 1.16 c0.28 0.32 0.72 0.48 1.16 0.48 l3.56 0 c2.04 0 3.92 0.8 5.36 2.24 c1.4 1.4 2.2 3.32 2.2 5.32 l0 2.28 c0 2 -0.8 3.88 -2.2 5.32 c-1.44 1.44 -3.32 2.2 -5.36 2.2 l-3.56 0 c-2.04 0 -3.92 -0.76 -5.36 -2.2 s-2.2 -3.32 -2.2 -5.32 l0 -1.48 l5.92 0 l0 1.48 c0 0.44 0.16 0.84 0.48 1.16 c0.28 0.28 0.72 0.48 1.16 0.48 l3.56 0 c0.44 0 0.88 -0.2 1.16 -0.48 c0.32 -0.32 0.48 -0.72 0.48 -1.16 l0 -2.28 c0 -0.44 -0.16 -0.84 -0.48 -1.16 c-0.28 -0.32 -0.72 -0.48 -1.16 -0.48 l-3.56 0 c-2.04 0 -3.92 -0.8 -5.36 -2.2 c-1.44 -1.44 -2.2 -3.32 -2.2 -5.36 l0 -2.24 c0 -2.04 0.76 -3.92 2.2 -5.36 c1.44 -1.4 3.32 -2.2 5.36 -2.2 l3.56 0 c2.04 0 3.92 0.8 5.36 2.2 c1.4 1.44 2.2 3.32 2.2 5.36 l0 1.48 z M76.2 17.2 c0.64 0 1.24 0.24 1.72 0.68 c0.44 0.48 0.68 1.08 0.68 1.72 l0 0.72 l4.4 0 l0 -0.72 c0 -1.84 -0.72 -3.52 -2 -4.8 s-2.96 -2 -4.8 -2 l-3.56 0 c-1.84 0 -3.52 0.72 -4.8 2 c-1.32 1.28 -2 2.96 -2 4.8 l0 2.24 c0 1.84 0.68 3.52 2 4.8 c1.28 1.28 2.96 2 4.8 2 l3.56 0 c0.64 0 1.24 0.24 1.72 0.72 c0.44 0.44 0.68 1.04 0.68 1.68 l0 2.28 c0 0.64 -0.24 1.24 -0.68 1.68 c-0.48 0.44 -1.08 0.72 -1.72 0.72 l-3.56 0 c-0.68 0 -1.28 -0.28 -1.72 -0.72 s-0.68 -1.04 -0.68 -1.68 l0 -0.72 l-4.4 0 l0 0.72 c0 1.8 0.68 3.52 2 4.8 c1.28 1.28 2.96 1.96 4.8 1.96 l3.56 0 c1.84 0 3.52 -0.68 4.8 -1.96 s2 -3 2 -4.8 l0 -2.28 c0 -1.8 -0.72 -3.52 -2 -4.8 s-2.96 -2 -4.8 -2 l-3.56 0 c-0.68 0 -1.28 -0.24 -1.72 -0.68 c-0.44 -0.48 -0.68 -1.08 -0.68 -1.72 l0 -2.24 c0 -0.64 0.24 -1.24 0.68 -1.72 c0.44 -0.44 1.04 -0.68 1.72 -0.68 l3.56 0 z M104.92 21.08 l-5.92 0 l0 -1.48 c0 -0.44 -0.16 -0.84 -0.48 -1.16 c-0.28 -0.32 -0.72 -0.48 -1.16 -0.48 l-3.56 0 c-0.44 0 -0.88 0.16 -1.16 0.48 c-0.32 0.32 -0.48 0.72 -0.48 1.16 l0 2.24 c0 0.44 0.16 0.88 0.48 1.16 c0.28 0.32 0.72 0.48 1.16 0.48 l3.56 0 c2.04 0 3.92 0.8 5.36 2.24 c1.4 1.4 2.2 3.32 2.2 5.32 l0 2.28 c0 2 -0.8 3.88 -2.2 5.32 c-1.44 1.44 -3.32 2.2 -5.36 2.2 l-3.56 0 c-2.04 0 -3.92 -0.76 -5.36 -2.2 s-2.2 -3.32 -2.2 -5.32 l0 -1.48 l5.92 0 l0 1.48 c0 0.44 0.16 0.84 0.48 1.16 c0.28 0.28 0.72 0.48 1.16 0.48 l3.56 0 c0.44 0 0.88 -0.2 1.16 -0.48 c0.32 -0.32 0.48 -0.72 0.48 -1.16 l0 -2.28 c0 -0.44 -0.16 -0.84 -0.48 -1.16 c-0.28 -0.32 -0.72 -0.48 -1.16 -0.48 l-3.56 0 c-2.04 0 -3.92 -0.8 -5.36 -2.2 c-1.44 -1.44 -2.2 -3.32 -2.2 -5.36 l0 -2.24 c0 -2.04 0.76 -3.92 2.2 -5.36 c1.44 -1.4 3.32 -2.2 5.36 -2.2 l3.56 0 c2.04 0 3.92 0.8 5.36 2.2 c1.4 1.44 2.2 3.32 2.2 5.36 l0 1.48 z M97.36 17.2 c0.64 0 1.24 0.24 1.72 0.68 c0.44 0.48 0.68 1.08 0.68 1.72 l0 0.72 l4.4 0 l0 -0.72 c0 -1.84 -0.72 -3.52 -2 -4.8 s-2.96 -2 -4.8 -2 l-3.56 0 c-1.84 0 -3.52 0.72 -4.8 2 c-1.32 1.28 -2 2.96 -2 4.8 l0 2.24 c0 1.84 0.68 3.52 2 4.8 c1.28 1.28 2.96 2 4.8 2 l3.56 0 c0.64 0 1.24 0.24 1.72 0.72 c0.44 0.44 0.68 1.04 0.68 1.68 l0 2.28 c0 0.64 -0.24 1.24 -0.68 1.68 c-0.48 0.44 -1.08 0.72 -1.72 0.72 l-3.56 0 c-0.68 0 -1.28 -0.28 -1.72 -0.72 s-0.68 -1.04 -0.68 -1.68 l0 -0.72 l-4.4 0 l0 0.72 c0 1.8 0.68 3.52 2 4.8 c1.28 1.28 2.96 1.96 4.8 1.96 l3.56 0 c1.84 0 3.52 -0.68 4.8 -1.96 s2 -3 2 -4.8 l0 -2.28 c0 -1.8 -0.72 -3.52 -2 -4.8 s-2.96 -2 -4.8 -2 l-3.56 0 c-0.68 0 -1.28 -0.24 -1.72 -0.68 c-0.44 -0.48 -0.68 -1.08 -0.68 -1.72 l0 -2.24 c0 -0.64 0.24 -1.24 0.68 -1.72 c0.44 -0.44 1.04 -0.68 1.72 -0.68 l3.56 0 z" fill="#f2eeeb"></path></g></svg>